<svg width="249" height="188" viewBox="0 0 249 188" fill="none" xmlns="http://www.w3.org/2000/svg">
<g clip-path="url(#clip0_2_130)">
<path opacity="0.18" d="M199.73 12.6965C217.68 29.0084 214.744 58.6239 228.325 78.741C233.445 86.3367 240.81 92.3756 244.879 100.55C249.203 109.259 249.323 119.427 248.76 129.128C248.272 137.626 247.296 146.26 243.88 154.058C237.627 168.302 223.708 178.124 208.784 182.478C193.859 186.832 177.952 186.238 162.539 184.351C147.127 182.463 131.842 179.207 116.34 178.289C105.154 177.627 93.9305 178.176 82.7598 179.041C70.8158 179.944 58.6315 181.154 46.9803 178.364C31.6805 174.709 18.4528 164.121 10.3149 150.584C2.17709 137.047 -0.945923 120.871 0.232713 105.145C0.863321 96.5118 2.79268 87.8483 6.98922 80.2677C13.3178 68.7689 24.2559 60.6393 34.9387 53.0437C43.1065 47.2379 51.342 41.5299 59.645 35.9197C74.1715 26.098 89.0433 16.5019 105.439 10.2825C123.059 3.59681 138.704 4.04804 157.044 5.13098C172.711 6.07855 186.435 0.618715 199.73 12.6965Z" fill="#68E1FD"/>
<path d="M211.862 66.7159C211.316 73.4929 208.443 79.8711 203.731 84.7649C199.572 89.1343 196.382 94.0451 195.008 99.9863C194.595 101.761 194.385 103.581 194.062 105.521H168.072C167.877 104.205 167.749 102.882 167.494 101.588C166.385 96.0181 163.737 90.8719 159.852 86.7353C156.488 83.0803 153.613 79.2148 151.879 74.477C145.182 56.3753 156.991 36.1227 176.007 33.1145C176.833 32.9867 177.659 32.8814 178.469 32.8212C182.987 32.4474 187.531 33.0711 191.781 34.6482C196.032 36.2253 199.885 38.7175 203.069 41.949C206.254 45.1804 208.691 49.0724 210.211 53.3505C211.73 57.6285 212.293 62.1883 211.862 66.7083V66.7159Z" fill="white"/>
<path d="M206.779 66.7159C206.234 73.4929 203.361 79.8711 198.649 84.7649C194.49 89.1343 191.299 94.0451 189.926 99.9863C189.513 101.761 189.302 103.581 188.98 105.521H168.072C167.877 104.205 167.749 102.882 167.494 101.588C166.385 96.0181 163.737 90.8719 159.852 86.7353C156.488 83.0803 153.613 79.2148 151.879 74.4769C145.182 56.3752 156.991 36.1227 176.007 33.1145C176.833 32.9867 177.659 32.8814 178.469 32.8212C181.054 33.0297 183.602 33.5654 186.052 34.4156C192.619 36.6958 198.232 41.119 201.99 46.9759C205.749 52.8328 207.435 59.7842 206.779 66.7159Z" fill="url(#paint0_linear_2_130)"/>
<path opacity="0.18" d="M64.9976 154.592C62.9371 154.784 60.9307 155.36 59.0819 156.292C58.1628 156.765 57.3691 157.45 56.7661 158.291C56.1631 159.132 55.7681 160.104 55.6136 161.127C55.3884 163.617 57.1151 165.948 59.2696 167.189C61.4242 168.43 63.9617 168.806 66.424 169.159L84.1261 171.679C87.707 172.19 91.288 172.701 94.899 172.98C96.4438 173.141 98.0012 173.141 99.546 172.98C101.262 172.664 102.96 172.262 104.636 171.776C110.274 170.438 116.167 171.024 121.955 170.874C123.37 170.904 124.777 170.648 126.092 170.122C126.744 169.85 127.314 169.41 127.741 168.846C128.168 168.281 128.438 167.614 128.524 166.911C128.682 163.714 124.41 160.699 121.535 160.428C120.146 160.3 118.772 160.428 117.376 160.165C115.033 159.721 112.729 158.947 110.416 158.367C100.929 155.865 91.2123 154.338 81.416 153.81C75.9308 153.566 70.435 153.828 64.9976 154.592Z" fill="#68E1FD"/>
<path d="M91.4381 160.849C91.381 162.469 91.6809 164.081 92.3164 165.572C93.1107 166.959 94.3073 168.071 95.7473 168.761C98.8323 170.366 102.416 170.719 105.754 169.746C106.21 169.657 106.62 169.409 106.911 169.046C107.078 168.744 107.151 168.398 107.121 168.054C107.046 166.211 105.807 164.632 104.493 163.338C103.179 162.045 101.7 160.849 100.882 159.195C99.3808 156.089 100.492 147.824 94.6512 149.147C89.7715 150.253 91.2729 157.39 91.4381 160.849Z" fill="#FFBBAB"/>
<path d="M90.6273 166.444C90.6273 166.444 89.8015 168.49 90.815 169.686C91.8285 170.881 102.324 177.417 109.38 172.152C116.437 166.888 99.8087 166.219 99.8087 166.219L90.6273 166.444Z" fill="#68E1FD"/>
<path d="M91.0327 161.691C91.3544 161.533 91.7219 161.496 92.0689 161.585C92.4158 161.675 92.7193 161.886 92.9245 162.18C93.612 162.967 94.4885 163.565 95.4712 163.918C96.4538 164.271 97.5101 164.366 98.54 164.196C100.845 163.647 101.761 160.992 102.909 160.977C104.058 160.962 110.161 166.166 110.499 168.407C110.837 170.648 107.729 172.28 104.275 172.498C100.822 172.716 93.0146 170.325 91.5132 168.512C90.0117 166.7 90.2369 162.835 91.0327 161.691Z" fill="white"/>
<path d="M113.645 156.811C113.587 158.431 113.887 160.043 114.523 161.534C115.315 162.922 116.512 164.035 117.954 164.722C121.039 166.328 124.623 166.681 127.961 165.707C128.418 165.621 128.828 165.373 129.117 165.008C129.285 164.706 129.358 164.36 129.327 164.015C129.252 162.173 128.013 160.593 126.7 159.3C125.386 158.006 123.907 156.811 123.089 155.156C121.587 152.05 122.698 143.785 116.858 145.109C111.985 146.222 113.509 153.359 113.645 156.811Z" fill="#FFBBAB"/>
<path d="M110.266 84.0204C112.203 85.0356 112.226 87.8934 112.826 90.1495C114.658 97.0934 116.312 104.082 117.789 111.117C119.265 118.151 120.561 125.215 121.677 132.309C121.955 134.106 125.056 153.088 124.417 153.254C123.464 153.502 111.257 155.021 111.25 154.69C110.909 142.434 108.686 130.305 104.658 118.727C100.499 106.77 95.6948 95.5492 93.0823 83.1254L103.42 83.4864C105.304 83.5466 107.301 83.4338 109.163 83.682C109.548 83.7263 109.922 83.841 110.266 84.0204Z" fill="#282328"/>
<path d="M101.941 84.4039C102.504 86.4645 102.241 89.1568 102.309 91.1723C102.444 94.8498 102.459 98.5273 102.481 102.197L102.774 156.773L89.9292 156.57C88.6455 143.597 87.2266 110.831 85.3873 104.032C83.473 96.9856 80.7028 91.3829 81.7388 83.7271C82.8574 75.4546 88.2926 73.7174 94.9591 77.8837C96.9109 79.1095 100.109 81.0047 101.363 83.0202C101.617 83.453 101.812 83.9185 101.941 84.4039Z" fill="#282328"/>
<path d="M126.662 54.7884C126.512 56.6309 125.911 58.2253 124.26 58.7141C124.126 58.7615 123.987 58.7968 123.847 58.8194C120.889 59.3308 117.09 56.9919 114.448 54.9614C113.349 54.1216 112.299 53.2202 111.302 52.2616L111.813 32.5129L125.746 47.5538C126.44 49.8998 126.75 52.3431 126.662 54.7884Z" fill="white"/>
<path d="M114.478 54.9012C113.702 58.4666 113.183 62.0832 112.924 65.7232C112.421 71.7395 111.422 77.7559 110.424 83.7271C104.696 84.7649 98.8552 84.1633 93.0822 83.1254C91.0702 82.7645 89.0658 82.3734 87.0764 81.9447C86.4007 81.8094 85.8001 81.4559 85.132 81.2754C81.8213 80.3579 80.9054 63.9784 80.7328 58.8269C80.5676 53.9486 80.5951 49.0654 80.8153 44.1771C80.9805 40.635 81.3559 36.8146 83.7357 34.205C86.8962 30.723 92.902 28.5195 97.4364 27.8051C98.9057 27.5422 100.406 27.4965 101.888 27.6697C103.985 28.0623 106 28.8073 107.849 29.8732C110.064 31.0389 112.03 32.0316 113.104 34.2802C114.244 36.8743 115.015 39.616 115.394 42.4248C115.964 46.5987 115.386 50.8101 114.478 54.9012Z" fill="white"/>
<path opacity="0.1" d="M93.0822 83.1255C91.0702 82.7645 89.0658 82.3734 87.0764 81.9447C86.4007 81.8094 85.8002 81.4559 85.132 81.2754C81.8213 80.3579 80.9055 63.9784 80.7328 58.8269L88.9907 49.8024C88.9907 49.8024 86.0554 76.3721 93.0822 83.1255Z" fill="#020202"/>
<path d="M104.959 23.7666C104.402 24.3412 103.654 24.6916 102.857 24.7518C102.19 24.8158 101.519 24.8158 100.852 24.7518H100.484C100.395 24.7177 100.296 24.7177 100.207 24.7518C100.126 24.8313 100.08 24.9394 100.079 25.0526C99.8988 26.3806 99.8385 27.7222 99.8988 29.061L99.9439 29.8131C99.9891 30.0665 99.9604 30.3276 99.8613 30.5651C99.7651 30.7017 99.6424 30.8173 99.5005 30.9052C99.3586 30.9931 99.2004 31.0514 99.0355 31.0765C98.4469 31.257 97.8342 31.3457 97.2187 31.3397C95.9075 31.1809 94.655 30.7032 93.5702 29.9484C93.7205 27.664 93.6602 25.3706 93.39 23.0973C93.0447 20.1643 92.354 17.2163 92.7444 14.2909C92.8443 13.1323 93.2918 12.0312 94.0282 11.1323C95.1167 9.97414 96.8283 9.6282 98.4124 9.68084C100.515 9.69376 102.571 10.3096 104.336 11.4557C104.599 11.6733 104.811 11.9467 104.956 12.2562C105.102 12.5656 105.177 12.9035 105.176 13.2455C105.379 14.4037 105.529 15.5769 105.627 16.7501C105.739 18.0812 105.784 19.4198 105.769 20.766C105.863 21.8308 105.575 22.8942 104.959 23.7666Z" fill="#FFBBAB"/>
<path d="M102.902 11.9069C102.407 12.0316 101.906 12.127 101.4 12.1927C100.386 12.1477 99.3719 12.2696 98.3974 12.5536C96.4005 13.3057 95.4921 15.8551 96.1002 17.9007C95.5221 18.0887 95.447 17.0584 95.0191 16.6297C94.5912 16.2011 93.5777 16.735 93.5177 17.4495C93.5408 18.1683 93.7393 18.8706 94.0957 19.495C94.6045 20.7737 94.6601 22.1886 94.2534 23.5034C94.1633 23.8117 93.9231 24.1727 93.6153 24.0825C93.3075 23.9922 93.0973 23.4583 92.9096 23.2176C92.264 22.3829 91.821 21.6534 90.6574 21.9392C90.2693 22.0827 89.8451 22.0959 89.4488 21.9768C89.0734 21.8113 88.8707 21.2247 89.1935 20.9841C88.4243 21.4217 87.531 21.5885 86.6561 21.4578C85.8153 21.2172 85.2147 20.0666 85.8152 19.4273C85.447 19.2952 85.1147 19.0787 84.8449 18.795C84.5751 18.5112 84.3753 18.1682 84.2615 17.7933C84.1477 17.4184 84.123 17.022 84.1894 16.6358C84.2559 16.2497 84.4116 15.8844 84.6441 15.5693C84.2559 15.3384 83.9723 14.9654 83.8532 14.5291C83.7342 14.0928 83.789 13.6272 84.006 13.2305C84.4741 12.4544 85.1797 11.8504 86.0179 11.5083C86.8613 11.1823 87.6509 10.7311 88.3602 10.1697C87.9939 9.76339 87.8012 9.22938 87.8237 8.68236C87.8462 8.13535 88.0819 7.61899 88.4803 7.24422C88.8893 6.88549 89.3654 6.61169 89.8809 6.4387C90.3964 6.26571 90.941 6.19697 91.4832 6.23648C91.4093 5.4833 91.5682 4.72556 91.9384 4.06583C92.3085 3.40611 92.8721 2.87626 93.5529 2.54802C94.2336 2.21978 94.9986 2.109 95.7442 2.23067C96.4899 2.35235 97.1802 2.70061 97.7217 3.22831C98.6751 2.61163 99.9213 2.8598 101.017 3.13054C102.159 3.35402 103.262 3.74423 104.291 4.28869C104.809 4.55512 105.264 4.93002 105.626 5.38803C105.987 5.84604 106.246 6.37646 106.385 6.9434C106.498 7.51284 106.41 8.10396 106.136 8.61565C105.863 9.12734 105.42 9.5278 104.884 9.74852C105.24 10.1229 105.48 10.5933 105.574 11.1022C105.574 11.6136 105.221 12.1927 104.703 12.14C104.446 12.0592 104.195 11.9586 103.953 11.8392C103.602 11.7874 103.243 11.8105 102.902 11.9069Z" fill="#473F47"/>
<path d="M100.852 24.7368H100.484C100.395 24.7026 100.296 24.7026 100.207 24.7368C100.126 24.8162 100.08 24.9244 100.079 25.0376C99.8989 26.3656 99.8386 27.7071 99.8988 29.046C99.8988 29.046 96.1002 27.9705 96.3479 23.2552C97.7937 23.8977 99.3037 24.3843 100.852 24.7067V24.7368Z" fill="#E0A194"/>
<path d="M146.579 39.1008C145.761 39.5896 144.649 39.71 144.124 40.5146C143.493 41.4622 144.049 42.6956 144.169 43.8236C144.266 45.0687 143.872 46.3021 143.073 47.2605C142.849 47.5567 142.598 47.8312 142.322 48.0802C141.029 49.0685 139.444 49.5977 137.818 49.5843C137.818 49.5843 137.015 45.9745 137.067 45.606C137.21 44.3651 138.103 43.2145 138.276 41.9059C138.366 40.5146 138.529 39.129 138.764 37.7546C139.084 36.4302 139.708 35.1988 140.586 34.1583C141.465 33.1178 142.573 32.2969 143.824 31.7608C144.139 31.6255 144.574 31.5578 144.747 31.8586C144.805 31.986 144.818 32.129 144.785 32.2647C144.559 33.6936 143.591 34.8893 142.66 36.0249C143.491 35.5809 144.377 35.2496 145.295 35.0398C145.7 34.942 146.301 35.0398 146.294 35.4383C146.294 35.6414 146.121 35.7918 145.971 35.9196C145.137 36.6717 144.312 37.3485 143.471 38.0555C144.47 37.7564 145.521 37.6693 146.556 37.7998C146.731 37.8056 146.899 37.8661 147.037 37.9727C147.315 38.3262 146.977 38.8677 146.579 39.1008Z" fill="#FFBBAB"/>
<path d="M146.579 39.1008C145.761 39.5896 144.649 39.7099 144.124 40.5146C143.493 41.4622 144.049 42.6956 144.169 43.8236C144.266 45.0686 143.872 46.3021 143.073 47.2605C142.78 47.4265 142.471 47.5601 142.15 47.6591C141.924 47.7412 141.677 47.7412 141.451 47.6591C141.268 47.5532 141.127 47.3859 141.054 47.1864C140.981 46.987 140.981 46.7682 141.053 46.5686C141.209 46.1783 141.4 45.8032 141.624 45.448C141.94 44.8049 141.999 44.0652 141.789 43.3799C141.516 42.8519 141.352 42.2736 141.309 41.6803C141.379 41.3143 141.527 40.9679 141.744 40.665L142.495 39.4317C142.624 39.2512 142.716 39.0466 142.765 38.8301C142.786 38.7203 142.771 38.6069 142.724 38.5057C142.677 38.4045 142.6 38.3207 142.502 38.266C142.383 38.2344 142.257 38.2329 142.136 38.2618C142.016 38.2906 141.904 38.3489 141.812 38.4315C141.391 38.7172 140.378 39.9356 140.528 38.7849C140.698 37.9847 141.008 37.2209 141.444 36.5288C142.274 35.1283 143.237 33.8112 144.319 32.5956C144.438 32.4635 144.565 32.3403 144.702 32.2271C144.477 33.656 143.508 34.8517 142.577 35.9873C143.408 35.5433 144.294 35.212 145.212 35.0022C145.618 34.9044 146.218 35.0022 146.211 35.4007C146.211 35.6038 146.038 35.7542 145.888 35.882C145.055 36.6341 144.229 37.3109 143.388 38.0178C144.388 37.7188 145.439 37.6317 146.474 37.7622C146.648 37.768 146.816 37.8285 146.954 37.9351C147.315 38.3262 146.977 38.8677 146.579 39.1008Z" fill="#E0A194"/>
<path d="M138.726 50.0054C136.783 52.6233 134.4 54.8829 131.684 56.6836C129.727 57.9429 127.482 58.683 125.161 58.8344C124.855 58.8537 124.548 58.8102 124.26 58.7066C123.77 58.545 123.344 58.2316 123.044 57.8117C122.105 56.6334 121.561 55.1886 121.49 53.6829C121.437 49.7498 125.746 47.5763 125.746 47.5763C125.746 47.5763 135.506 44.7336 136.639 45.2676C137.27 45.5609 137.825 46.9371 138.216 48.1329C138.569 49.1331 138.726 50.0054 138.726 50.0054Z" fill="white"/>
<path d="M87.9759 34.3468L87.9686 34.3453C84.0321 33.5616 80.2068 36.1231 79.4245 40.0665L75.5862 59.4142C74.8039 63.3576 77.3609 67.1897 81.2974 67.9734L81.3047 67.9748C85.2412 68.7585 89.0665 66.197 89.8488 62.2536L93.6871 42.9059C94.4694 38.9625 91.9124 35.1304 87.9759 34.3468Z" fill="white"/>
<path d="M78.3605 57.8342L61.8446 57.4732L60.741 66.2721C60.741 66.2721 80.425 72.7397 84.5089 69.3856C88.5929 66.0315 89.3886 63.7528 89.3886 63.7528C89.3886 63.7528 87.6094 56.9017 78.3605 57.8342Z" fill="white"/>
<path d="M56.9199 66.6632C57.4688 66.8441 58.0394 66.9503 58.6165 66.9791C59.3672 67.0468 60.1855 67.0844 60.9663 67.0919C61.8507 67.1347 62.7366 67.0434 63.5938 66.8211C64.4554 66.5959 65.2038 66.0604 65.6958 65.3171C65.7809 65.1872 65.8277 65.0361 65.831 64.8809C65.831 64.392 65.1703 64.2416 64.6749 64.2416C62.3251 64.2416 59.9753 64.2416 57.6256 64.2416C56.9349 64.2416 55.5686 64.1138 55.3284 65.0388C55.1106 65.7984 56.3118 66.4451 56.9199 66.6632Z" fill="#FFBBAB"/>
<path d="M78.353 62.6548H48.2415C47.5698 62.6548 47.0253 63.2003 47.0253 63.8731C47.0253 64.546 47.5698 65.0914 48.2415 65.0914H78.353C79.0247 65.0914 79.5692 64.546 79.5692 63.8731C79.5692 63.2003 79.0247 62.6548 78.353 62.6548Z" fill="#68E1FD"/>
<path opacity="0.1" d="M138.726 50.0054C136.783 52.6232 134.4 54.8829 131.684 56.6836C129.727 57.9429 127.482 58.683 125.161 58.8344C124.855 58.8537 124.548 58.8102 124.26 58.7066C124.126 58.754 123.987 58.7893 123.847 58.8119C120.889 59.3233 117.09 56.9844 114.448 54.9539V54.8937L115.536 49.0579C117.253 50.9273 119.264 52.5024 121.49 53.7205C123.057 54.619 124.866 55.0029 126.662 54.8185C127.148 54.7572 127.623 54.6281 128.073 54.435C131.71 52.7949 135.12 50.6891 138.216 48.1704C138.569 49.1331 138.726 50.0054 138.726 50.0054Z" fill="#020202"/>
<path d="M112.834 162.406C112.834 162.406 112.008 164.451 113.021 165.647C114.035 166.843 124.53 173.378 131.587 168.114C138.644 162.85 122.053 162.18 122.053 162.18L112.834 162.406Z" fill="#68E1FD"/>
<path d="M113.239 157.653C113.561 157.495 113.928 157.457 114.275 157.547C114.622 157.637 114.926 157.848 115.131 158.142C115.819 158.928 116.695 159.527 117.678 159.881C118.66 160.234 119.716 160.332 120.746 160.165C123.051 159.608 123.967 156.954 125.116 156.939C126.264 156.923 132.368 162.135 132.705 164.369C133.043 166.602 129.935 168.242 126.482 168.467C123.029 168.693 115.221 166.286 113.72 164.474C112.218 162.662 112.443 158.796 113.239 157.653Z" fill="white"/>
<path d="M181.12 104.446C183.01 104.446 184.543 102.911 184.543 101.017C184.543 99.1226 183.01 97.5872 181.12 97.5872C179.229 97.5872 177.696 99.1226 177.696 101.017C177.696 102.911 179.229 104.446 181.12 104.446Z" fill="#68E1FD"/>
<path d="M181.765 58.0899H180.219V97.5797H181.765V58.0899Z" fill="#68E1FD"/>
<path d="M177.831 58.7667H184.528L181.075 52.2766L177.831 58.7667Z" fill="#68E1FD"/>
<path d="M184.363 70.6114H181.165V68.9945H184.363C185.187 68.9945 185.977 68.6665 186.56 68.0826C187.143 67.4987 187.471 66.7068 187.471 65.8811V63.3843H189.085V65.8811C189.085 66.5023 188.963 67.1174 188.725 67.6913C188.488 68.2652 188.14 68.7867 187.702 69.226C187.263 69.6652 186.743 70.0136 186.17 70.2514C185.597 70.4891 184.983 70.6114 184.363 70.6114Z" fill="#68E1FD"/>
<path d="M190.864 60.2558H185.714V65.4148H190.864V60.2558Z" fill="#68E1FD"/>
<path d="M181.818 82.0275H180.204V79.1396C180.202 78.506 179.95 77.8988 179.502 77.4508C179.055 77.0027 178.449 76.7501 177.816 76.7481C176.564 76.7481 175.363 76.2497 174.477 75.3626C173.592 74.4755 173.094 73.2723 173.094 72.0178V65.4223H174.708V72.0478C174.71 72.873 175.038 73.6637 175.621 74.2472C176.203 74.8307 176.993 75.1593 177.816 75.1613C178.878 75.1613 179.895 75.5836 180.646 76.3353C181.396 77.087 181.818 78.1066 181.818 79.1697V82.0275Z" fill="#68E1FD"/>
<path d="M171.33 66.5504C171.33 67.975 172.483 69.1299 173.905 69.1299C175.327 69.1299 176.48 67.975 176.48 66.5504C176.48 65.1258 175.327 63.9709 173.905 63.9709C172.483 63.9709 171.33 65.1258 171.33 66.5504Z" fill="#68E1FD"/>
<path d="M194.655 105.544H168.875C167.005 105.544 165.49 107.062 165.49 108.936V108.943C165.49 110.816 167.005 112.335 168.875 112.335H194.655C196.525 112.335 198.041 110.816 198.041 108.943V108.936C198.041 107.062 196.525 105.544 194.655 105.544Z" fill="#68E1FD"/>
<path d="M192.703 111.259H169.656C167.985 111.259 166.631 112.616 166.631 114.29V114.298C166.631 115.971 167.985 117.328 169.656 117.328H192.703C194.374 117.328 195.729 115.971 195.729 114.298V114.29C195.729 112.616 194.374 111.259 192.703 111.259Z" fill="#68E1FD"/>
<path d="M191.179 116.215H171.187C169.736 116.215 168.56 117.394 168.56 118.848C168.56 120.301 169.736 121.48 171.187 121.48H191.179C192.63 121.48 193.807 120.301 193.807 118.848C193.807 117.394 192.63 116.215 191.179 116.215Z" fill="#68E1FD"/>
<path d="M194.655 105.544H168.875C167.005 105.544 165.49 107.062 165.49 108.936V108.943C165.49 110.816 167.005 112.335 168.875 112.335H194.655C196.525 112.335 198.041 110.816 198.041 108.943V108.936C198.041 107.062 196.525 105.544 194.655 105.544Z" fill="url(#paint1_linear_2_130)"/>
<path d="M192.703 111.259H169.656C167.985 111.259 166.631 112.616 166.631 114.29V114.298C166.631 115.971 167.985 117.328 169.656 117.328H192.703C194.374 117.328 195.729 115.971 195.729 114.298V114.29C195.729 112.616 194.374 111.259 192.703 111.259Z" fill="url(#paint2_linear_2_130)"/>
<path d="M191.179 116.215H171.187C169.736 116.215 168.56 117.394 168.56 118.848C168.56 120.301 169.736 121.48 171.187 121.48H191.179C192.63 121.48 193.807 120.301 193.807 118.848C193.807 117.394 192.63 116.215 191.179 116.215Z" fill="url(#paint3_linear_2_130)"/>
<path d="M73.3007 61.4064L66.912 44.1696C66.7888 43.8502 66.5756 43.5736 66.2984 43.3734C66.0212 43.1731 65.6919 43.0578 65.3505 43.0415L41.8003 41.7706L48.3316 62.8278L71.604 63.7904C71.8924 63.7975 72.1781 63.7337 72.4361 63.6046C72.6941 63.4754 72.9166 63.2848 73.084 63.0496C73.2515 62.8143 73.3588 62.5415 73.3966 62.255C73.4343 61.9685 73.4014 61.6772 73.3007 61.4064Z" fill="#68E1FD"/>
<path d="M73.2556 61.3463L66.7619 43.7936C66.6913 43.5858 66.561 43.4035 66.3874 43.2697C66.2137 43.1359 66.0045 43.0565 65.7859 43.0415L41.8003 41.7706L48.3316 62.8278L71.4989 63.7904C71.7954 63.7986 72.0893 63.7341 72.3551 63.6023C72.6208 63.4706 72.8504 63.2756 73.0237 63.0346C73.1969 62.7935 73.3087 62.5136 73.3491 62.2193C73.3895 61.925 73.3574 61.6253 73.2556 61.3463Z" fill="url(#paint4_linear_2_130)"/>
<path d="M71.7542 61.7449L65.1929 44.0267C65.0855 43.7501 64.9011 43.5101 64.6615 43.3355C64.4219 43.1608 64.1373 43.0588 63.8416 43.0415L42.3408 41.8909C42.0913 41.8694 41.8404 41.9108 41.6109 42.0113C41.3814 42.1119 41.1807 42.2683 41.027 42.4664C40.8733 42.6644 40.7715 42.8979 40.7308 43.1455C40.6902 43.393 40.712 43.6469 40.7944 43.8838L46.3497 61.7975C46.4434 62.0969 46.6256 62.3607 46.8723 62.5541C47.1189 62.7475 47.4184 62.8613 47.731 62.8804L70.2527 63.813C70.5077 63.8319 70.7633 63.7854 70.9952 63.6777C71.2272 63.57 71.4279 63.4048 71.5783 63.1977C71.7286 62.9906 71.8237 62.7484 71.8545 62.4941C71.8853 62.2399 71.8508 61.982 71.7542 61.7449Z" fill="#68E1FD"/>
</g>
<defs>
<linearGradient id="paint0_linear_2_130" x1="268.654" y1="129.542" x2="128.992" y2="38.1977" gradientUnits="userSpaceOnUse">
<stop offset="0.01"/>
<stop offset="0.13" stop-opacity="0.69"/>
<stop offset="0.25" stop-opacity="0.32"/>
<stop offset="1" stop-opacity="0"/>
</linearGradient>
<linearGradient id="paint1_linear_2_130" x1="181.81" y1="95.9102" x2="181.72" y2="121.525" gradientUnits="userSpaceOnUse">
<stop offset="0.01"/>
<stop offset="0.13" stop-opacity="0.69"/>
<stop offset="0.25" stop-opacity="0.32"/>
<stop offset="1" stop-opacity="0"/>
</linearGradient>
<linearGradient id="paint2_linear_2_130" x1="181.923" y1="102.16" x2="180.318" y2="128.218" gradientUnits="userSpaceOnUse">
<stop offset="0.01"/>
<stop offset="0.13" stop-opacity="0.69"/>
<stop offset="0.25" stop-opacity="0.32"/>
<stop offset="1" stop-opacity="0"/>
</linearGradient>
<linearGradient id="paint3_linear_2_130" x1="181.593" y1="109.229" x2="180.696" y2="130.113" gradientUnits="userSpaceOnUse">
<stop offset="0.01"/>
<stop offset="0.13" stop-opacity="0.69"/>
<stop offset="0.25" stop-opacity="0.32"/>
<stop offset="1" stop-opacity="0"/>
</linearGradient>
<linearGradient id="paint4_linear_2_130" x1="74.5844" y1="41.1388" x2="39.8039" y2="64.0426" gradientUnits="userSpaceOnUse">
<stop offset="0.01"/>
<stop offset="0.13" stop-opacity="0.69"/>
<stop offset="0.25" stop-opacity="0.32"/>
<stop offset="1" stop-opacity="0"/>
</linearGradient>
<clipPath id="clip0_2_130">
<rect width="249" height="188" fill="white"/>
</clipPath>
</defs>
</svg>
