<svg width="320" height="100" viewBox="0 0 320 100" fill="none" xmlns="http://www.w3.org/2000/svg">
<g clip-path="url(#clip0_2_237)">
<path d="M0 50L10.6667 46.6562C21.3333 43.4375 42.6667 36.5625 64 41.6562C85.3333 46.5625 106.667 63.4375 128 58.3437C149.333 53.4375 170.667 26.5625 192 26.6562C213.333 26.5625 234.667 53.4375 256 58.3437C277.333 63.4375 298.667 46.5625 309.333 38.3437L320 30V-5.72205e-06H309.333C298.667 -5.72205e-06 277.333 -5.72205e-06 256 -5.72205e-06C234.667 -5.72205e-06 213.333 -5.72205e-06 192 -5.72205e-06C170.667 -5.72205e-06 149.333 -5.72205e-06 128 -5.72205e-06C106.667 -5.72205e-06 85.3333 -5.72205e-06 64 -5.72205e-06C42.6667 -5.72205e-06 21.3333 -5.72205e-06 10.6667 -5.72205e-06H0V50Z" fill="#68E1FD"/>
</g>
<defs>
<clipPath id="clip0_2_237">
<rect width="320" height="100" fill="white" transform="matrix(1 0 0 -1 0 100)"/>
</clipPath>
</defs>
</svg>
